<svg width="1862" height="1021" viewBox="0 0 1862 1021" fill="none" xmlns="http://www.w3.org/2000/svg">
<path d="M1206 305.5C1322.5 76.5 1483 0.5 1623.5 0.5H1861.5V1020.5H212C286 865 568 768.5 823.5 687.5C1079 606.5 1152.86 409.965 1206 305.5Z" fill="#2D3047"/>
<circle cx="1412.2" cy="512.612" r="40.6122" fill="#548CA8" fill-opacity="0.2"/>
<circle cx="1517.8" cy="512.612" r="40.6122" fill="#548CA8" fill-opacity="0.2"/>
<circle cx="1623.39" cy="512.612" r="40.6122" fill="#548CA8" fill-opacity="0.2"/>
<circle cx="1412.2" cy="620.641" r="40.6122" fill="#548CA8" fill-opacity="0.2"/>
<circle cx="1517.8" cy="620.641" r="40.6122" fill="#548CA8" fill-opacity="0.2"/>
<circle cx="1517.8" cy="728.669" r="40.6122" fill="#548CA8" fill-opacity="0.2"/>
<circle cx="1517.8" cy="836.698" r="40.6122" fill="#548CA8" fill-opacity="0.2"/>
<circle cx="1623.39" cy="620.641" r="40.6122" fill="#548CA8" fill-opacity="0.2"/>
<circle cx="1306.61" cy="728.669" r="40.6122" fill="#548CA8" fill-opacity="0.2"/>
<circle cx="1412.2" cy="728.669" r="40.6122" fill="#548CA8" fill-opacity="0.2"/>
<circle cx="1592.93" cy="706.333" r="18.2755" fill="#548CA8" fill-opacity="0.2"/>
<circle cx="1284.89" cy="490.891" r="18.2755" fill="#548CA8" fill-opacity="0.2"/>
<circle cx="1592.93" cy="706.333" r="18.2755" transform="rotate(1.96294 1592.93 706.333)" fill="#548CA8" fill-opacity="0.2"/>
<circle cx="1284.89" cy="490.891" r="18.2755" transform="rotate(1.96294 1284.89 490.891)" fill="#548CA8" fill-opacity="0.2"/>
<circle cx="1592.93" cy="754.255" r="18.2755" fill="#548CA8" fill-opacity="0.2"/>
<circle cx="1284.89" cy="538.813" r="18.2755" fill="#548CA8" fill-opacity="0.2"/>
<circle cx="1592.93" cy="802.178" r="18.2755" fill="#548CA8" fill-opacity="0.2"/>
<circle cx="1284.89" cy="586.735" r="18.2755" fill="#548CA8" fill-opacity="0.2"/>
<circle cx="1592.93" cy="850.1" r="18.2755" fill="#548CA8" fill-opacity="0.2"/>
<circle cx="1284.89" cy="634.658" r="18.2755" fill="#548CA8" fill-opacity="0.2"/>
<circle cx="1641.66" cy="706.333" r="18.2755" fill="#548CA8" fill-opacity="0.2"/>
<circle cx="1333.63" cy="490.891" r="18.2755" fill="#548CA8" fill-opacity="0.2"/>
<circle cx="1641.66" cy="706.333" r="18.2755" fill="#548CA8" fill-opacity="0.2"/>
<circle cx="1333.63" cy="490.891" r="18.2755" fill="#548CA8" fill-opacity="0.2"/>
<circle cx="1641.66" cy="754.255" r="18.2755" fill="#548CA8" fill-opacity="0.2"/>
<circle cx="1333.63" cy="538.813" r="18.2755" fill="#548CA8" fill-opacity="0.2"/>
<circle cx="1641.66" cy="802.178" r="18.2755" fill="#548CA8" fill-opacity="0.2"/>
<circle cx="1333.63" cy="586.735" r="18.2755" fill="#548CA8" fill-opacity="0.2"/>
<circle cx="1641.66" cy="850.1" r="18.2755" fill="#548CA8" fill-opacity="0.2"/>
<circle cx="1333.63" cy="634.658" r="18.2755" fill="#548CA8" fill-opacity="0.2"/>
<circle cx="1306.61" cy="836.698" r="40.6122" fill="#548CA8" fill-opacity="0.2"/>
<circle cx="1412.2" cy="836.698" r="40.6122" fill="#548CA8" fill-opacity="0.2"/>
<circle cx="70" cy="427" r="15" fill="white"/>
<circle cx="15" cy="649" r="15" fill="white"/>
<circle cx="70" cy="649" r="15" fill="white"/>
<circle cx="70" cy="482.762" r="15" fill="white"/>
<circle cx="15" cy="704.762" r="15" fill="white"/>
<circle cx="70" cy="704.762" r="15" fill="white"/>
<circle cx="15" cy="538.381" r="15" fill="white"/>
<circle cx="15" cy="483.143" r="15" fill="white"/>
<circle cx="15" cy="427.762" r="15" fill="white"/>
<circle cx="70" cy="538.381" r="15" fill="white"/>
<circle cx="15" cy="593.858" r="15" fill="white"/>
<circle cx="70" cy="593.858" r="15" fill="white"/>
</svg>
